# Blender v3.1.2 OBJ File: ''
# www.blender.org
mtllib garlic.mtl
o Garlic.001_Cylinder.004
v 0.583310 0.332202 -0.443458
v 0.514540 0.515943 -0.385752
v 0.620505 0.515943 -0.202216
v 0.704865 0.332202 -0.232920
v 0.102868 0.853894 -0.090135
v 0.158658 0.853894 0.006494
v 0.584079 0.515943 0.006494
v 0.663079 0.332202 0.006494
v 0.663079 0.332202 0.006494
v 0.584079 0.515943 0.006494
v 0.620505 0.515943 0.215203
v 0.704865 0.332202 0.245908
v 0.514540 0.515943 0.398740
v 0.583312 0.332202 0.456445
v 0.102868 0.853894 0.103123
v 0.315579 0.515943 0.471549
v 0.355080 0.332202 0.539966
v 0.355080 0.332202 0.539966
v 0.315579 0.515943 0.471549
v 0.153044 0.515943 0.607450
v 0.168633 0.332202 0.695859
v -0.058885 0.515943 0.607450
v -0.074474 0.332202 0.695860
v -0.008708 0.853894 0.103123
v -0.221420 0.515943 0.471550
v -0.260919 0.332202 0.539966
v -0.260919 0.332202 0.539966
v -0.221420 0.515943 0.471550
v -0.420381 0.515943 0.398741
v -0.489150 0.332202 0.456446
v -0.526345 0.515943 0.215205
v -0.610706 0.332202 0.245909
v -0.064498 0.853894 0.006494
v -0.489919 0.515943 0.006495
v -0.568919 0.332202 0.006495
v -0.568919 0.332202 0.006495
v -0.489919 0.515943 0.006495
v -0.526345 0.515943 -0.202215
v -0.610706 0.332202 -0.232919
v -0.420381 0.515943 -0.385752
v -0.489152 0.332202 -0.443457
v -0.008710 0.853894 -0.090135
v -0.221421 0.515943 -0.458561
v -0.260921 0.332202 -0.526977
v -0.260921 0.332202 -0.526977
v -0.221421 0.515943 -0.458561
v -0.058887 0.515943 -0.594462
v -0.074475 0.332202 -0.682871
v 0.153044 0.515943 -0.594462
v 0.168633 0.332202 -0.682872
v 0.315579 0.515943 -0.458562
v 0.355078 0.332202 -0.526978
v 0.315579 0.515943 -0.458562
v 0.355078 0.332202 -0.526978
v 0.144376 0.002558 -0.162027
v 0.460032 0.122929 -0.340014
v 0.553641 0.122929 -0.177879
v 0.241671 0.002558 0.006494
v 0.521462 0.122929 0.006494
v 0.521462 0.122929 0.006494
v 0.553641 0.122929 0.190867
v 0.460032 0.122929 0.353002
v 0.144376 0.002558 0.175015
v 0.284272 0.122929 0.417321
v 0.284272 0.122929 0.417321
v 0.140689 0.122929 0.537375
v -0.046529 0.122929 0.537375
v -0.050216 0.002558 0.175015
v -0.190110 0.122929 0.417321
v -0.190110 0.122929 0.417321
v -0.365873 0.122929 0.353002
v -0.459481 0.122929 0.190867
v -0.147512 0.002558 0.006494
v -0.427303 0.122929 0.006494
v -0.427303 0.122929 0.006494
v -0.459481 0.122929 -0.177878
v -0.365873 0.122929 -0.340013
v -0.050216 0.002558 -0.162027
v -0.190112 0.122929 -0.404332
v -0.190112 0.122929 -0.404332
v -0.046529 0.122929 -0.524386
v 0.140687 0.122929 -0.524387
v 0.284270 0.122929 -0.404333
v 0.284270 0.122929 -0.404333
v 0.080554 1.063895 -0.051483
v 0.114026 1.063895 0.006494
v 0.013606 1.063895 0.064472
v -0.019866 1.063895 0.006494
v 0.080554 1.063895 0.064471
v 0.013606 1.063895 -0.051483
v 0.080554 1.063895 -0.051483
v 0.013606 1.063895 -0.051483
v -0.019866 1.063895 0.006494
v 0.013606 1.063895 0.064472
v 0.080554 1.063895 0.064471
v 0.114026 1.063895 0.006494
vt 0.767033 0.298766
vt 0.767033 0.425424
vt 0.713418 0.425424
vt 0.713418 0.298766
vt 0.820648 0.658386
vt 0.659803 0.658386
vt 0.659803 0.425424
vt 0.659803 0.298766
vt 0.659803 0.298766
vt 0.659803 0.425424
vt 0.606188 0.425424
vt 0.606188 0.298766
vt 0.552573 0.425424
vt 0.552573 0.298766
vt 0.498958 0.658386
vt 0.498959 0.425424
vt 0.498958 0.298766
vt 0.498958 0.298766
vt 0.498959 0.425424
vt 0.445344 0.425424
vt 0.445344 0.298766
vt 0.391729 0.425424
vt 0.391729 0.298766
vt 0.338114 0.658386
vt 0.338114 0.425424
vt 0.338114 0.298766
vt 0.338114 0.298766
vt 0.338114 0.425424
vt 0.284499 0.425424
vt 0.284499 0.298766
vt 0.230884 0.425424
vt 0.230884 0.298766
vt 0.177269 0.658386
vt 0.177269 0.425424
vt 0.177269 0.298766
vt 0.177269 0.298766
vt 0.177269 0.425424
vt 0.123654 0.425424
vt 0.123654 0.298766
vt 0.070040 0.425424
vt 0.070040 0.298766
vt 0.016425 0.658386
vt 0.016425 0.425424
vt 0.016425 0.298766
vt 0.981493 0.298766
vt 0.981493 0.425424
vt 0.927878 0.425424
vt 0.927878 0.298766
vt 0.981493 0.658386
vt 0.874263 0.425424
vt 0.874263 0.298766
vt 0.820648 0.425424
vt 0.820648 0.298766
vt 0.820648 0.425424
vt 0.820648 0.298766
vt 0.820648 0.012156
vt 0.767033 0.154507
vt 0.713418 0.154507
vt 0.659803 0.012156
vt 0.659803 0.154507
vt 0.659803 0.154507
vt 0.606188 0.154507
vt 0.552573 0.154507
vt 0.498958 0.012156
vt 0.498958 0.154507
vt 0.498958 0.154507
vt 0.445344 0.154507
vt 0.391729 0.154507
vt 0.338114 0.012156
vt 0.338114 0.154507
vt 0.338114 0.154507
vt 0.284499 0.154507
vt 0.230884 0.154507
vt 0.177269 0.012156
vt 0.177269 0.154507
vt 0.177269 0.154507
vt 0.123654 0.154507
vt 0.070039 0.154507
vt 0.016425 0.012156
vt 0.016425 0.154507
vt 0.981493 0.012156
vt 0.981493 0.154507
vt 0.927878 0.154507
vt 0.874263 0.154507
vt 0.820648 0.154507
vt 0.820648 0.154507
vt 0.820648 0.803146
vt 0.659803 0.803146
vt 0.338114 0.803146
vt 0.177270 0.803146
vt 0.498958 0.803146
vt 0.981493 0.803146
vt 0.016425 0.803146
vt 0.975037 0.844779
vt 0.961383 0.868428
vt 0.934075 0.868429
vt 0.920421 0.844779
vt 0.934075 0.821130
vt 0.961383 0.821130
vt 0.210044 0.904033
vt 0.160645 0.989595
vt 0.061846 0.989595
vt 0.012446 0.904033
vt 0.160645 0.818471
vt 0.061846 0.818471
vn 0.6535 -0.0903 -0.7516
vn 0.5016 0.6249 -0.5983
vn 0.7689 0.6249 -0.1352
vn 0.9776 -0.0903 -0.1901
vn 0.3819 0.6454 -0.6615
vn 0.7638 0.6454 -0.0000
vn 0.7769 0.6149 0.1356
vn 0.9804 -0.0982 0.1711
vn 0.9804 -0.0982 -0.1711
vn 0.7769 0.6149 -0.1356
vn 0.7689 0.6249 0.1352
vn 0.9776 -0.0903 0.1901
vn 0.5016 0.6249 0.5983
vn 0.6535 -0.0903 0.7516
vn 0.3819 0.6454 0.6615
vn 0.2710 0.6149 0.7406
vn 0.3420 -0.0982 0.9346
vn 0.6384 -0.0982 0.7635
vn 0.5058 0.6149 0.6050
vn 0.2674 0.6249 0.7335
vn 0.3241 -0.0903 0.9417
vn -0.2674 0.6249 0.7335
vn -0.3241 -0.0903 0.9417
vn -0.3819 0.6454 0.6615
vn -0.5058 0.6149 0.6050
vn -0.6384 -0.0982 0.7635
vn -0.3420 -0.0982 0.9346
vn -0.2710 0.6149 0.7406
vn -0.5016 0.6249 0.5983
vn -0.6535 -0.0903 0.7516
vn -0.7689 0.6249 0.1352
vn -0.9776 -0.0903 0.1901
vn -0.7638 0.6454 0.0000
vn -0.7769 0.6149 -0.1356
vn -0.9804 -0.0982 -0.1711
vn -0.9804 -0.0982 0.1711
vn -0.7769 0.6149 0.1356
vn -0.7689 0.6249 -0.1352
vn -0.9776 -0.0903 -0.1901
vn -0.5016 0.6249 -0.5983
vn -0.6535 -0.0903 -0.7516
vn -0.3819 0.6454 -0.6615
vn -0.2710 0.6149 -0.7406
vn -0.3420 -0.0982 -0.9346
vn -0.6384 -0.0982 -0.7635
vn -0.5058 0.6149 -0.6050
vn -0.2674 0.6249 -0.7335
vn -0.3241 -0.0903 -0.9417
vn 0.2674 0.6249 -0.7335
vn 0.3241 -0.0903 -0.9417
vn 0.5058 0.6149 -0.6050
vn 0.6384 -0.0982 -0.7635
vn 0.2710 0.6149 -0.7406
vn 0.3420 -0.0982 -0.9346
vn 0.1023 -0.9788 -0.1772
vn 0.3996 -0.7785 -0.4840
vn 0.6190 -0.7785 -0.1040
vn 0.2046 -0.9788 -0.0000
vn 0.6148 -0.7814 0.1073
vn 0.6148 -0.7814 -0.1073
vn 0.6190 -0.7785 0.1040
vn 0.3996 -0.7785 0.4840
vn 0.1023 -0.9788 0.1772
vn 0.2145 -0.7814 0.5860
vn 0.4003 -0.7814 0.4787
vn 0.2194 -0.7785 0.5881
vn -0.2194 -0.7785 0.5881
vn -0.1023 -0.9788 0.1772
vn -0.4003 -0.7814 0.4787
vn -0.2145 -0.7814 0.5860
vn -0.3996 -0.7785 0.4840
vn -0.6190 -0.7785 0.1040
vn -0.2046 -0.9788 -0.0000
vn -0.6148 -0.7814 -0.1073
vn -0.6148 -0.7814 0.1073
vn -0.6190 -0.7785 -0.1040
vn -0.3996 -0.7785 -0.4840
vn -0.1023 -0.9788 -0.1772
vn -0.2145 -0.7814 -0.5860
vn -0.4003 -0.7814 -0.4787
vn -0.2194 -0.7785 -0.5881
vn 0.2194 -0.7785 -0.5881
vn 0.4003 -0.7814 -0.4787
vn 0.2145 -0.7814 -0.5860
vn 0.4891 0.2079 -0.8471
vn 0.9782 0.2079 0.0000
vn -0.4891 0.2079 0.8471
vn -0.9782 0.2079 0.0000
vn 0.4891 0.2079 0.8471
vn -0.4891 0.2079 -0.8471
vn 0.0000 1.0000 -0.0000
usemtl GarlicMat
s 1
f 1/1/1 2/2/2 3/3/3 4/4/4
f 2/2/2 5/5/5 6/6/6 3/3/3
f 4/4/4 3/3/3 7/7/7 8/8/8
f 3/3/3 6/6/6 7/7/7
f 9/9/9 10/10/10 11/11/11 12/12/12
f 10/10/10 6/6/6 11/11/11
f 12/12/12 11/11/11 13/13/13 14/14/14
f 11/11/11 6/6/6 15/15/15 13/13/13
f 14/14/14 13/13/13 16/16/16 17/17/17
f 13/13/13 15/15/15 16/16/16
f 18/18/18 19/19/19 20/20/20 21/21/21
f 19/19/19 15/15/15 20/20/20
f 21/21/21 20/20/20 22/22/22 23/23/23
f 20/20/20 15/15/15 24/24/24 22/22/22
f 23/23/23 22/22/22 25/25/25 26/26/26
f 22/22/22 24/24/24 25/25/25
f 27/27/27 28/28/28 29/29/29 30/30/30
f 28/28/28 24/24/24 29/29/29
f 30/30/30 29/29/29 31/31/31 32/32/32
f 29/29/29 24/24/24 33/33/33 31/31/31
f 32/32/32 31/31/31 34/34/34 35/35/35
f 31/31/31 33/33/33 34/34/34
f 36/36/36 37/37/37 38/38/38 39/39/39
f 37/37/37 33/33/33 38/38/38
f 39/39/39 38/38/38 40/40/40 41/41/41
f 38/38/38 33/33/33 42/42/42 40/40/40
f 41/41/41 40/40/40 43/43/43 44/44/44
f 40/40/40 42/42/42 43/43/43
f 45/45/45 46/46/46 47/47/47 48/48/48
f 46/46/46 42/49/42 47/47/47
f 48/48/48 47/47/47 49/50/49 50/51/50
f 47/47/47 42/49/42 5/5/5 49/50/49
f 50/51/50 49/50/49 51/52/51 52/53/52
f 49/50/49 5/5/5 51/52/51
f 5/5/5 2/2/2 53/54/53
f 2/2/2 1/1/1 54/55/54 53/54/53
f 55/56/55 56/57/56 57/58/57 58/59/58
f 56/57/56 1/1/1 4/4/4 57/58/57
f 58/59/58 57/58/57 59/60/59
f 57/58/57 4/4/4 8/8/8 59/60/59
f 58/59/58 60/61/60 61/62/61
f 60/61/60 9/9/9 12/12/12 61/62/61
f 58/59/58 61/62/61 62/63/62 63/64/63
f 61/62/61 12/12/12 14/14/14 62/63/62
f 63/64/63 62/63/62 64/65/64
f 62/63/62 14/14/14 17/17/17 64/65/64
f 63/64/63 65/66/65 66/67/66
f 65/66/65 18/18/18 21/21/21 66/67/66
f 63/64/63 66/67/66 67/68/67 68/69/68
f 66/67/66 21/21/21 23/23/23 67/68/67
f 68/69/68 67/68/67 69/70/69
f 67/68/67 23/23/23 26/26/26 69/70/69
f 68/69/68 70/71/70 71/72/71
f 70/71/70 27/27/27 30/30/30 71/72/71
f 68/69/68 71/72/71 72/73/72 73/74/73
f 71/72/71 30/30/30 32/32/32 72/73/72
f 73/74/73 72/73/72 74/75/74
f 72/73/72 32/32/32 35/35/35 74/75/74
f 73/74/73 75/76/75 76/77/76
f 75/76/75 36/36/36 39/39/39 76/77/76
f 73/74/73 76/77/76 77/78/77 78/79/78
f 76/77/76 39/39/39 41/41/41 77/78/77
f 78/79/78 77/78/77 79/80/79
f 77/78/77 41/41/41 44/44/44 79/80/79
f 78/81/78 80/82/80 81/83/81
f 80/82/80 45/45/45 48/48/48 81/83/81
f 82/84/82 55/56/55 78/81/78 81/83/81
f 81/83/81 48/48/48 50/51/50 82/84/82
f 55/56/55 82/84/82 83/85/83
f 82/84/82 50/51/50 52/53/52 83/85/83
f 1/1/1 56/57/56 84/86/84 54/55/54
f 56/57/56 55/56/55 84/86/84
f 6/6/6 5/5/5 85/87/85 86/88/86
f 33/33/33 24/24/24 87/89/87 88/90/88
f 24/24/24 15/15/15 89/91/89 87/89/87
f 15/15/15 6/6/6 86/88/86 89/91/89
f 5/5/5 42/49/42 90/92/90 85/87/85
f 42/42/42 33/33/33 88/90/88 90/93/90
f 91/94/91 92/95/91 93/96/91 94/97/91
f 91/94/91 94/97/91 95/98/91 96/99/91
usemtl GarlicBase
f 55/100/55 58/101/58 63/102/63 68/103/68
f 78/104/78 55/100/55 68/103/68 73/105/73
