# Blender 3.1.0
# www.blender.org
mtllib brick_wall.mtl
o Brick_Wall
v 0.000000 -0.000003 -0.000001
v 24.383999 -0.000000 -0.000001
v 24.383995 19.507200 0.000001
v -0.000002 19.507196 0.000001
v 0.000000 -0.000003 1.625599
v 24.383999 0.000000 1.625599
v 24.383995 19.507200 1.625601
v -0.000002 19.507196 1.625601
v 24.383999 2.034725 -0.000000
v 24.383999 2.034725 1.625600
v -0.000002 2.034722 1.625600
v -0.000002 2.034722 -0.000000
v 24.383995 16.426559 0.000001
v 24.383995 16.426559 1.625600
v -0.000002 16.426558 1.625600
v -0.000002 16.426558 0.000001
v 0.000000 -0.000003 1.828799
v 24.383999 -0.000000 1.828799
v 24.383999 2.034725 1.828799
v -0.000002 2.034722 1.828799
v 24.383995 19.507200 1.828801
v -0.000002 19.507196 1.828801
v -0.000002 16.426558 1.828800
v 24.383995 16.426559 1.828800
vn -0.0000 -0.0000 0.0254
vn -0.0000 -0.0254 -0.0000
vn 0.0254 -0.0000 -0.0000
vn -0.0000 0.0254 -0.0000
vn -0.0254 -0.0000 -0.0000
vn -0.0000 -0.0000 -0.0254
vt 0.951564 0.588445
vt 0.592766 0.905003
vt 0.593750 1.000000
vt 0.951564 0.936859
vt 0.592851 0.565157
vt 0.593750 0.531250
vt 0.953941 0.533236
vt 0.966819 0.565157
vt 0.968750 0.531250
vt 0.953941 0.990405
vt 0.967322 0.905003
vt 0.968750 1.000000
vt 0.928336 0.588445
vt 0.592766 0.873790
vt 0.928336 0.936859
vt 0.592851 0.596321
vt 0.923463 0.533236
vt 0.966819 0.596321
vt 0.923463 0.990405
vt 0.967322 0.873790
vt 0.631859 0.565157
vt 0.632865 0.531250
vt 0.631859 0.596321
vt 0.632865 0.531250
vt 0.632865 1.000000
vt 0.631834 0.873790
vt 0.631834 0.905003
vt 0.632865 1.000000
vt 0.907761 0.565157
vt 0.909529 0.531250
vt 0.909529 0.531250
vt 0.907761 0.596321
vt 0.908171 0.873790
vt 0.909529 1.000000
vt 0.908171 0.905003
vt 0.909529 1.000000
vt 0.593750 1.000000
vt 0.925433 0.588445
vt 0.592766 0.869888
vt 0.593750 0.531250
vt 0.925433 0.936859
vt 0.592851 0.600216
vt 0.631859 0.600216
vt 0.632865 0.531250
vt 0.632865 1.000000
vt 0.631834 0.869888
vt 0.968750 0.531250
vt 0.919654 0.533236
vt 0.966819 0.600216
vt 0.968750 1.000000
vt 0.919654 0.990405
vt 0.967322 0.869888
vt 0.908171 0.869888
vt 0.909529 1.000000
vt 0.909529 0.531250
vt 0.907761 0.600216
s 1
usemtl 01_-_Default.001
f 19/44/1 20/45/1 17/37/1
f 17/37/1 18/40/1 19/44/1
s 0
f 1/1/2 2/4/2 6/15/2
f 6/15/2 5/13/2 1/1/2
f 9/21/3 10/23/3 6/16/3
f 6/16/3 2/5/3 9/21/3
f 3/7/4 4/10/4 8/19/4
f 8/19/4 7/17/4 3/7/4
f 16/35/5 15/33/5 8/20/5
f 8/20/5 4/11/5 16/35/5
s 1
f 14/31/1 15/34/1 11/25/1
f 11/25/1 10/24/1 14/31/1
s 0
f 13/29/3 14/32/3 10/23/3
f 10/23/3 9/21/3 13/29/3
f 1/2/5 5/14/5 11/26/5
f 11/26/5 12/27/5 1/2/5
f 12/27/5 11/26/5 15/33/5
f 15/33/5 16/35/5 12/27/5
s 1
f 21/47/1 22/50/1 23/54/1
f 23/54/1 24/55/1 21/47/1
s 0
f 3/8/3 7/18/3 14/32/3
f 14/32/3 13/29/3 3/8/3
f 5/13/2 6/15/2 18/41/2
f 18/41/2 17/38/2 5/13/2
f 6/16/3 10/23/3 19/43/3
f 19/43/3 18/42/3 6/16/3
f 10/24/4 11/25/4 20/45/4
f 20/45/4 19/44/4 10/24/4
f 11/26/5 5/14/5 17/39/5
f 17/39/5 20/46/5 11/26/5
f 7/17/4 8/19/4 22/51/4
f 22/51/4 21/48/4 7/17/4
f 8/20/5 15/33/5 23/53/5
f 23/53/5 22/52/5 8/20/5
f 15/34/2 14/31/2 24/55/2
f 24/55/2 23/54/2 15/34/2
f 14/32/3 7/18/3 21/49/3
f 21/49/3 24/56/3 14/32/3
f 16/36/6 4/12/6 3/9/6
f 12/28/6 16/36/6 3/9/6
f 1/3/6 12/28/6 3/9/6
f 1/3/6 3/9/6 13/30/6
f 1/3/6 13/30/6 9/22/6
f 1/3/6 9/22/6 2/6/6
