# Blender 3.1.0
# www.blender.org
mtllib Skirting.mtl
o Cornice
v -0.000002 3.251198 0.000004
v -0.000002 -0.000002 0.000004
v 24.383999 -0.000002 0.000004
v 24.383999 3.251198 0.000004
v -0.000002 3.251198 1.625604
v -0.000002 -0.000001 1.625604
v 24.383999 -0.000001 1.625604
v 24.383999 3.251198 1.625604
v 24.383999 2.684463 0.000004
v 24.383999 2.684463 1.625604
v -0.000002 2.684463 1.625604
v -0.000002 2.684463 0.000004
v 24.383999 0.603517 0.000004
v 24.383999 0.603517 1.625604
v -0.000002 0.603517 1.625604
v -0.000002 0.603517 0.000004
v 12.633595 2.684461 1.625604
v 12.633595 0.603515 1.625604
v 12.633593 -0.000001 1.625604
v 12.633593 -0.000002 0.000004
v 12.633595 0.603515 0.000004
v 12.633595 2.684461 0.000004
v 12.633595 3.251198 0.000004
v 12.633595 3.251198 1.625604
v 11.848675 2.684461 1.625604
v 11.848675 0.603515 1.625604
v 11.848674 -0.000001 1.625604
v 11.848674 -0.000002 0.000004
v 11.848675 0.603515 0.000004
v 11.848675 2.684461 0.000004
v 11.848675 3.251198 0.000004
v 11.848675 3.251198 1.625604
v 1.115377 2.684463 1.625604
v 1.115377 0.603517 1.625604
v 1.115377 -0.000001 1.625604
v 1.115377 -0.000002 0.000004
v 1.115377 0.603517 0.000004
v 1.115377 2.684463 0.000004
v 1.115377 3.251198 0.000004
v 1.115377 3.251198 1.625604
v 9.749476 2.684461 1.625604
v 9.749476 0.603515 1.625604
v 9.749475 -0.000001 1.625604
v 9.749475 -0.000002 0.000004
v 9.749476 0.603515 0.000004
v 9.749476 2.684461 0.000004
v 9.749476 3.251198 0.000004
v 9.749476 3.251198 1.625604
v 14.696287 2.684461 1.625604
v 14.696287 0.603515 1.625604
v 14.696287 -0.000001 1.625604
v 14.696287 -0.000002 0.000004
v 14.696287 0.603515 0.000004
v 14.696287 2.684461 0.000004
v 14.696287 3.251198 0.000004
v 14.696287 3.251198 1.625604
v 23.385149 2.684463 1.625604
v 23.385149 0.603517 1.625604
v 23.385149 -0.000001 1.625604
v 23.385149 -0.000002 0.000004
v 23.385149 0.603517 0.000004
v 23.385149 2.684463 0.000004
v 23.385149 3.251198 0.000004
v 23.385149 3.251198 1.625604
v 11.848675 0.603515 2.032004
v 12.633595 0.603515 2.032004
v 12.633595 2.684461 2.032004
v 14.696287 2.684461 2.032004
v 23.385149 2.684463 2.032004
v 23.385149 3.251198 2.032004
v 14.696287 3.251198 2.032004
v 12.633595 3.251198 2.032004
v 11.848675 3.251198 2.032004
v 9.749476 3.251198 2.032004
v 1.115377 3.251198 2.032004
v 1.115377 2.684463 2.032004
v 9.749476 2.684461 2.032004
v 11.848675 2.684461 2.032004
v 1.115377 -0.000001 2.032004
v 9.749475 -0.000001 2.032004
v 9.749476 0.603515 2.032004
v 1.115377 0.603517 2.032004
v 14.696287 -0.000001 2.032004
v 23.385149 -0.000001 2.032004
v 23.385149 0.603517 2.032004
v 14.696287 0.603515 2.032004
v 1.115377 2.684463 1.828804
v 1.115377 0.603517 1.828804
v 9.749476 0.603515 1.828804
v 9.749476 2.684461 1.828804
v 14.696287 2.684461 1.828804
v 14.696287 0.603515 1.828804
v 23.385149 0.603517 1.828804
v 23.385149 2.684463 1.828804
vn -0.0000 -0.0000 0.0254
vn -0.0254 -0.0000 -0.0000
vn -0.0000 -0.0254 -0.0000
vn 0.0254 -0.0000 -0.0000
vn -0.0000 0.0254 -0.0000
vn -0.0000 -0.0000 -0.0254
vt 0.392031 0.999967
vt 0.000000 1.000000
vt 0.181232 0.872322
vt 0.450637 0.491507
vt 0.392031 0.938017
vt 0.000000 0.937500
vt 0.184786 0.937230
vt 0.468750 0.937500
vt 0.244837 0.491507
vt 0.538932 0.872322
vt 0.184786 0.999529
vt 0.468750 1.000000
vt 0.361056 0.999967
vt 0.181232 0.848475
vt 0.000000 1.000000
vt 0.000000 0.937500
vt 0.450637 0.477787
vt 0.361056 0.938017
vt 0.153637 0.937230
vt 0.468750 0.937500
vt 0.244837 0.477787
vt 0.538932 0.848475
vt 0.468750 1.000000
vt 0.153637 0.999529
vt 0.184786 0.988669
vt 0.468750 0.989105
vt 0.468750 0.989105
vt 0.153637 0.988669
vt 0.361056 0.989168
vt 0.000000 0.989105
vt 0.392031 0.989168
vt 0.000000 0.989105
vt 0.184786 0.948794
vt 0.468750 0.949102
vt 0.153637 0.948794
vt 0.468750 0.949102
vt 0.361056 0.949516
vt 0.000000 0.949102
vt 0.392031 0.949516
vt 0.000000 0.949102
vt 0.242864 0.989105
vt 0.242864 0.949102
vt 0.242864 0.937500
vt 0.344010 0.477787
vt 0.344010 0.491507
vt 0.242864 0.937500
vt 0.242864 0.949102
vt 0.242864 0.989105
vt 0.242864 1.000000
vt 0.366560 0.872322
vt 0.366560 0.848475
vt 0.227775 0.989105
vt 0.227775 0.949102
vt 0.227775 0.937500
vt 0.350634 0.477787
vt 0.227775 0.937500
vt 0.350634 0.491507
vt 0.227775 0.949102
vt 0.227775 0.989105
vt 0.355046 0.872322
vt 0.227775 1.000000
vt 0.355046 0.848475
vt 0.021442 0.989105
vt 0.021442 0.949102
vt 0.441223 0.477787
vt 0.021442 0.937500
vt 0.441223 0.491507
vt 0.021442 0.937500
vt 0.021442 0.949102
vt 0.021442 0.989105
vt 0.021442 1.000000
vt 0.197594 0.872322
vt 0.197594 0.848475
vt 0.021442 1.000000
vt 0.187421 0.989105
vt 0.187421 0.949102
vt 0.368351 0.477787
vt 0.187421 0.937500
vt 0.187421 0.937500
vt 0.368351 0.491507
vt 0.187421 0.949102
vt 0.187421 0.989105
vt 0.324252 0.872322
vt 0.187421 1.000000
vt 0.324252 0.848475
vt 0.282517 0.989105
vt 0.282517 0.949102
vt 0.326601 0.477787
vt 0.282517 0.937500
vt 0.326601 0.491507
vt 0.282517 0.937500
vt 0.282517 0.949102
vt 0.282517 0.989105
vt 0.282517 1.000000
vt 0.396819 0.872322
vt 0.396819 0.848475
vt 0.449548 0.989105
vt 0.449548 0.949102
vt 0.253267 0.477787
vt 0.449548 0.937500
vt 0.449548 0.937500
vt 0.253267 0.491507
vt 0.449548 0.949102
vt 0.449548 0.989105
vt 0.524280 0.872322
vt 0.449548 1.000000
vt 0.449548 1.000000
vt 0.524280 0.848475
vt 0.227775 0.949102
vt 0.242864 0.949102
vt 0.242864 0.989105
vt 0.282517 0.989105
vt 0.449548 0.989105
vt 0.449548 1.000000
vt 0.524280 0.842514
vt 0.282517 1.000000
vt 0.396819 0.842514
vt 0.242864 1.000000
vt 0.366560 0.842514
vt 0.227775 1.000000
vt 0.355046 0.842514
vt 0.187421 1.000000
vt 0.324252 0.842514
vt 0.197594 0.842514
vt 0.021442 1.000000
vt 0.021442 0.989105
vt 0.187421 0.989105
vt 0.227775 0.989105
vt 0.441223 0.474357
vt 0.021442 0.937500
vt 0.368351 0.474357
vt 0.187421 0.937500
vt 0.187421 0.949102
vt 0.021442 0.949102
vt 0.326601 0.474357
vt 0.282517 0.937500
vt 0.253267 0.474357
vt 0.449548 0.937500
vt 0.449548 0.949102
vt 0.282517 0.949102
vt 0.021442 0.989105
vt 0.021442 0.949102
vt 0.187421 0.949102
vt 0.187421 0.989105
vt 0.282517 0.989105
vt 0.282517 0.949102
vt 0.449548 0.949102
vt 0.449548 0.989105
s 1
usemtl 01_-_Default.003
f 35/66/1 34/64/1 15/38/1
f 15/38/1 6/16/1 35/66/1
s 0
f 12/31/2 11/29/2 5/13/2
f 5/13/2 1/1/2 12/31/2
f 36/67/3 35/65/3 6/17/3
f 6/17/3 2/4/3 36/67/3
f 13/33/4 14/35/4 7/19/4
f 7/19/4 3/7/4 13/33/4
f 63/105/5 64/108/5 8/22/5
f 8/22/5 4/10/5 63/105/5
f 39/71/6 38/70/6 12/32/6
f 12/32/6 1/2/6 39/71/6
s 1
f 8/23/1 64/107/1 57/97/1
f 57/97/1 10/27/1 8/23/1
s 0
f 16/39/2 15/37/2 11/29/2
f 11/29/2 12/31/2 16/39/2
f 4/11/4 8/24/4 10/28/4
f 10/28/4 9/25/4 4/11/4
f 13/34/6 61/103/6 62/104/6
f 62/104/6 9/26/6 13/34/6
s 1
f 10/27/1 57/97/1 58/98/1
f 58/98/1 14/36/1 10/27/1
s 0
f 9/25/4 10/28/4 14/35/4
f 14/35/4 13/33/4 9/25/4
f 2/5/2 6/18/2 15/37/2
f 15/37/2 16/39/2 2/5/2
f 3/8/6 60/101/6 61/103/6
f 61/103/6 13/34/6 3/8/6
s 1
f 51/89/1 50/87/1 18/42/1
f 18/42/1 19/43/1 51/89/1
s 0
f 52/90/3 51/88/3 19/44/3
f 19/44/3 20/45/3 52/90/3
f 31/60/5 32/62/5 24/51/5
f 24/51/5 23/50/5 31/60/5
f 55/94/6 54/93/6 22/48/6
f 22/48/6 23/49/6 55/94/6
s 1
f 73/120/1 78/128/1 67/111/1
f 67/111/1 72/118/1 73/120/1
s 0
f 29/58/6 30/59/6 22/48/6
f 22/48/6 21/47/6 29/58/6
s 1
f 78/128/1 65/109/1 66/110/1
f 66/110/1 67/111/1 78/128/1
s 0
f 28/56/6 29/58/6 21/47/6
f 21/47/6 20/46/6 28/56/6
s 1
f 19/43/1 18/42/1 26/53/1
f 26/53/1 27/54/1 19/43/1
s 0
f 20/45/3 19/44/3 27/55/3
f 27/55/3 28/57/3 20/45/3
f 23/49/6 22/48/6 30/59/6
f 30/59/6 31/61/6 23/49/6
f 47/83/5 48/85/5 32/62/5
f 32/62/5 31/60/5 47/83/5
s 1
f 74/122/1 77/127/1 78/128/1
f 78/128/1 73/120/1 74/122/1
s 0
f 45/81/6 46/82/6 30/59/6
f 30/59/6 29/58/6 45/81/6
s 1
f 41/75/1 42/76/1 26/53/1
f 26/53/1 25/52/1 41/75/1
s 0
f 44/79/6 45/81/6 29/58/6
f 29/58/6 28/56/6 44/79/6
s 1
f 80/132/1 81/133/1 82/134/1
f 82/134/1 79/130/1 80/132/1
s 0
f 44/80/3 43/77/3 35/65/3
f 35/65/3 36/67/3 44/80/3
f 47/84/6 46/82/6 38/70/6
f 38/70/6 39/71/6 47/84/6
f 1/3/5 5/14/5 40/73/5
f 40/73/5 39/72/5 1/3/5
s 1
f 5/15/1 11/30/1 33/63/1
f 33/63/1 40/74/1 5/15/1
s 0
f 16/40/6 12/32/6 38/70/6
f 38/70/6 37/69/6 16/40/6
s 1
f 11/30/1 15/38/1 34/64/1
f 34/64/1 33/63/1 11/30/1
s 0
f 2/6/6 16/40/6 37/69/6
f 37/69/6 36/68/6 2/6/6
f 39/72/5 40/73/5 48/85/5
f 48/85/5 47/83/5 39/72/5
s 1
f 75/125/1 76/126/1 77/127/1
f 77/127/1 74/122/1 75/125/1
s 0
f 37/69/6 38/70/6 46/82/6
f 46/82/6 45/81/6 37/69/6
s 1
f 87/141/1 88/142/1 89/143/1
f 89/143/1 90/144/1 87/141/1
s 0
f 36/68/6 37/69/6 45/81/6
f 45/81/6 44/79/6 36/68/6
s 1
f 27/54/1 26/53/1 42/76/1
f 42/76/1 43/78/1 27/54/1
s 0
f 28/57/3 27/55/3 43/77/3
f 43/77/3 44/80/3 28/57/3
f 31/61/6 30/59/6 46/82/6
f 46/82/6 47/84/6 31/61/6
f 23/50/5 24/51/5 56/96/5
f 56/96/5 55/95/5 23/50/5
s 1
f 72/118/1 67/111/1 68/112/1
f 68/112/1 71/116/1 72/118/1
s 0
f 21/47/6 22/48/6 54/93/6
f 54/93/6 53/92/6 21/47/6
s 1
f 17/41/1 18/42/1 50/87/1
f 50/87/1 49/86/1 17/41/1
s 0
f 20/46/6 21/47/6 53/92/6
f 53/92/6 52/91/6 20/46/6
s 1
f 84/138/1 85/139/1 86/140/1
f 86/140/1 83/136/1 84/138/1
s 0
f 60/102/3 59/99/3 51/88/3
f 51/88/3 52/90/3 60/102/3
f 63/106/6 62/104/6 54/93/6
f 54/93/6 55/94/6 63/106/6
f 55/95/5 56/96/5 64/108/5
f 64/108/5 63/105/5 55/95/5
s 1
f 71/116/1 68/112/1 69/113/1
f 69/113/1 70/114/1 71/116/1
s 0
f 53/92/6 54/93/6 62/104/6
f 62/104/6 61/103/6 53/92/6
s 1
f 91/145/1 92/146/1 93/147/1
f 93/147/1 94/148/1 91/145/1
s 0
f 52/91/6 53/92/6 61/103/6
f 61/103/6 60/101/6 52/91/6
s 1
f 7/20/1 14/36/1 58/98/1
f 58/98/1 59/100/1 7/20/1
s 0
f 3/9/3 7/21/3 59/99/3
f 59/99/3 60/102/3 3/9/3
f 4/12/6 9/26/6 62/104/6
f 62/104/6 63/106/6 4/12/6
f 26/53/3 18/42/3 66/110/3
f 66/110/3 65/109/3 26/53/3
f 18/42/4 17/41/4 67/111/4
f 67/111/4 66/110/4 18/42/4
f 17/41/3 49/86/3 68/112/3
f 68/112/3 67/111/3 17/41/3
f 49/86/3 57/97/3 69/113/3
f 69/113/3 68/112/3 49/86/3
f 57/97/4 64/107/4 70/114/4
f 70/114/4 69/113/4 57/97/4
f 64/108/5 56/96/5 71/117/5
f 71/117/5 70/115/5 64/108/5
f 56/96/5 24/51/5 72/119/5
f 72/119/5 71/117/5 56/96/5
f 24/51/5 32/62/5 73/121/5
f 73/121/5 72/119/5 24/51/5
f 32/62/5 48/85/5 74/123/5
f 74/123/5 73/121/5 32/62/5
f 48/85/5 40/73/5 75/124/5
f 75/124/5 74/123/5 48/85/5
f 40/74/2 33/63/2 76/126/2
f 76/126/2 75/125/2 40/74/2
f 33/63/3 41/75/3 77/127/3
f 77/127/3 76/126/3 33/63/3
f 41/75/3 25/52/3 78/128/3
f 78/128/3 77/127/3 41/75/3
f 25/52/2 26/53/2 65/109/2
f 65/109/2 78/128/2 25/52/2
f 35/65/3 43/77/3 80/131/3
f 80/131/3 79/129/3 35/65/3
f 43/78/4 42/76/4 81/133/4
f 81/133/4 80/132/4 43/78/4
f 42/76/5 34/64/5 82/134/5
f 82/134/5 81/133/5 42/76/5
f 34/64/2 35/66/2 79/130/2
f 79/130/2 82/134/2 34/64/2
f 51/88/3 59/99/3 84/137/3
f 84/137/3 83/135/3 51/88/3
f 59/100/4 58/98/4 85/139/4
f 85/139/4 84/138/4 59/100/4
f 58/98/5 50/87/5 86/140/5
f 86/140/5 85/139/5 58/98/5
f 50/87/2 51/89/2 83/136/2
f 83/136/2 86/140/2 50/87/2
f 33/63/2 34/64/2 88/142/2
f 88/142/2 87/141/2 33/63/2
f 34/64/3 42/76/3 89/143/3
f 89/143/3 88/142/3 34/64/3
f 42/76/4 41/75/4 90/144/4
f 90/144/4 89/143/4 42/76/4
f 41/75/5 33/63/5 87/141/5
f 87/141/5 90/144/5 41/75/5
f 49/86/2 50/87/2 92/146/2
f 92/146/2 91/145/2 49/86/2
f 50/87/3 58/98/3 93/147/3
f 93/147/3 92/146/3 50/87/3
f 58/98/4 57/97/4 94/148/4
f 94/148/4 93/147/4 58/98/4
f 57/97/5 49/86/5 91/145/5
f 91/145/5 94/148/5 57/97/5
