# Blender 3.1.0
# www.blender.org
mtllib wide_pillar_nodoor.mtl
o Wide_Pillar_No_Door
v 11.379200 -0.000000 -0.000003
v 0.000000 -0.000000 -0.000003
v 0.000000 26.009600 0.000000
v 11.379200 26.009600 0.000000
v 0.000000 0.000000 3.251197
v 11.379200 0.000000 3.251197
v 11.379200 26.009600 3.251200
v 0.000000 26.009600 3.251200
v 11.379200 25.185507 3.251199
v 0.000000 25.185507 3.251199
v 11.379200 18.592766 3.251199
v 0.000000 18.592766 3.251199
v 11.379200 17.493977 3.251199
v 0.000000 17.493977 3.251199
v 10.078532 18.592766 3.251199
v 10.078532 17.493977 3.251199
v 10.078532 26.009600 3.251200
v 10.078532 25.185507 3.251199
v 1.219538 18.592766 3.251199
v 1.219538 17.493977 3.251199
v 1.219538 26.009600 3.251200
v 1.219538 25.185507 3.251199
v 11.379200 26.009600 3.454400
v 10.078532 26.009600 3.454400
v 1.219538 26.009600 3.454400
v 0.000000 26.009600 3.454400
v 0.000000 25.185507 3.454400
v 1.219538 25.185507 3.454400
v 10.078532 25.185507 3.454400
v 11.379200 25.185507 3.454400
v 10.078532 18.592766 3.657599
v 1.219538 18.592766 3.657599
v 1.219538 17.493977 3.657599
v 10.078532 17.493977 3.657599
vn -0.0000 -0.0254 -0.0000
vn 0.0254 -0.0000 -0.0000
vn -0.0000 0.0254 -0.0000
vn -0.0254 -0.0000 -0.0000
vn -0.0000 -0.0000 -0.0254
vn -0.0000 -0.0000 0.0254
vt 1.000000 0.001286
vt 0.933594 0.000000
vt 0.995254 0.000000
vt 0.781250 0.001286
vt 0.785996 0.000000
vt 0.847656 0.000000
vt 0.785996 0.500000
vt 0.787459 0.061969
vt 0.847656 0.500000
vt 0.995254 0.500000
vt 0.990319 0.061969
vt 0.933594 0.500000
vt 0.781250 0.063786
vt 0.781250 0.000000
vt 0.785156 0.000000
vt 1.000000 0.063786
vt 0.996094 0.000000
vt 1.000000 0.000000
vt 0.990319 0.004009
vt 0.996094 0.500000
vt 0.785156 0.500000
vt 0.787459 0.004009
vt 1.000000 0.484158
vt 0.996094 0.484158
vt 0.781250 0.484158
vt 0.785156 0.484158
vt 1.000000 0.357421
vt 0.996094 0.357421
vt 0.781250 0.357421
vt 0.785156 0.357421
vt 1.000000 0.336298
vt 0.996094 0.336298
vt 0.781250 0.336298
vt 0.785156 0.336298
vt 0.974996 0.357421
vt 0.974996 0.336298
vt 0.967132 0.004009
vt 0.974996 0.484158
vt 0.804694 0.357421
vt 0.804694 0.336298
vt 0.809200 0.004009
vt 0.804694 0.484158
vt 0.990319 0.000387
vt 1.000000 0.500000
vt 0.974996 0.500000
vt 0.967132 0.000387
vt 0.804694 0.500000
vt 0.809200 0.000387
vt 0.787459 0.000387
vt 0.781250 0.500000
vt 0.781250 0.484158
vt 0.804694 0.484158
vt 0.974996 0.484158
vt 1.000000 0.484158
vt 0.974996 0.357421
vt 0.804694 0.357421
vt 0.804694 0.336298
vt 0.974996 0.336298
s 0
usemtl 01_-_Default.009
f 1/1/1 6/16/1 5/13/1
f 5/13/1 2/4/1 1/1/1
f 1/2/2 4/12/2 13/32/2
f 13/32/2 6/17/2 1/2/2
f 4/11/3 17/37/3 7/19/3
f 3/9/4 10/26/4 8/21/4
f 2/5/5 3/7/5 4/10/5
f 4/10/5 1/3/5 2/5/5
s 1
f 23/44/6 24/45/6 29/53/6
f 29/53/6 30/54/6 23/44/6
f 9/23/6 18/38/6 15/35/6
f 15/35/6 11/27/6 9/23/6
f 11/27/6 15/35/6 16/36/6
f 16/36/6 13/31/6 11/27/6
f 25/47/6 28/52/6 29/53/6
f 29/53/6 24/45/6 25/47/6
f 22/42/6 19/39/6 15/35/6
f 15/35/6 18/38/6 22/42/6
f 32/56/6 33/57/6 34/58/6
f 34/58/6 31/55/6 32/56/6
f 26/50/6 27/51/6 28/52/6
f 28/52/6 25/47/6 26/50/6
f 10/25/6 12/29/6 19/39/6
f 19/39/6 22/42/6 10/25/6
f 12/29/6 14/33/6 20/40/6
f 20/40/6 19/39/6 12/29/6
f 20/40/6 14/33/6 5/14/6
f 16/36/6 20/40/6 5/14/6
f 16/36/6 5/14/6 6/18/6
f 16/36/6 6/18/6 13/31/6
s 0
f 7/19/3 17/37/3 24/46/3
f 24/46/3 23/43/3 7/19/3
f 17/37/3 21/41/3 25/48/3
f 25/48/3 24/46/3 17/37/3
f 21/41/3 8/22/3 26/49/3
f 26/49/3 25/48/3 21/41/3
f 8/21/4 10/26/4 27/51/4
f 27/51/4 26/50/4 8/21/4
f 10/25/1 22/42/1 28/52/1
f 28/52/1 27/51/1 10/25/1
f 22/42/1 18/38/1 29/53/1
f 29/53/1 28/52/1 22/42/1
f 18/38/1 9/23/1 30/54/1
f 30/54/1 29/53/1 18/38/1
f 9/24/2 7/20/2 23/44/2
f 23/44/2 30/54/2 9/24/2
f 15/35/3 19/39/3 32/56/3
f 32/56/3 31/55/3 15/35/3
f 19/39/4 20/40/4 33/57/4
f 33/57/4 32/56/4 19/39/4
f 20/40/1 16/36/1 34/58/1
f 34/58/1 33/57/1 20/40/1
f 16/36/2 15/35/2 31/55/2
f 31/55/2 34/58/2 16/36/2
f 4/12/2 7/20/2 9/24/2
f 4/11/3 3/8/3 21/41/3
f 21/41/3 17/37/3 4/11/3
f 3/9/4 12/30/4 10/26/4
f 3/8/3 8/22/3 21/41/3
f 4/12/2 9/24/2 11/28/2
f 4/12/2 11/28/2 13/32/2
f 3/9/4 14/34/4 12/30/4
f 2/6/4 5/15/4 14/34/4
f 14/34/4 3/9/4 2/6/4
